<svg id="Layer_1" data-name="Layer 1" xmlns="http://www.w3.org/2000/svg" viewBox="0 0 2267.72 3968.5"><defs><style>.cls-1{fill:#222120;}</style></defs><title>mask</title><path class="cls-1" d="M176.76,288.47c90.44,17,172.64,54.84,256.91,88.37C603.82,440.75,850,423,953.2,423.22c185.76-5.46,404,4.33,487.17-13.52C1901.9,335.81,1909.78,253,1948.81,562.25c26.45,190.7,46.79,376.42,65,565.83,43.54,419.25,83.48,905.74,76.24,1070.55C2075.59,2707.32,1995,3207.09,1909.17,3434c-75.92,199.33-100.73,142.61-260.88,132-1904.44-176.93-1387.7,1244-1439.21-2621.36C205.65,640.62,194.54,345.64,176.76,288.47ZM2267.72,0H0V3968.5H2267.72Z" transform="translate(0 0)"/></svg>